PathFileType	4	(X/Y/Z)	C:\Users\dbl\Desktop\20210112\20210112\bx_n_0_1802.trc
DataRate	CameraRate	NumFrames	NumMarkers	Units	OrigDataRate	OrigDataStartFrame	OrigNumFrames
50.00	50.00	       7	43	mm	50.00	319	       425
Frame#	Time	Top.Head			R.Acromium			L.Acromium			Sternum			R.ASIS			L.ASIS			V.Sacral			R.Thigh.Upper			R.Thigh.Front			R.Thigh.Rear			R.Knee.Lat			R.Knee.Med			R.Shank.Upper			R.Shank.Front			R.Shank.Rear			R.Ankle.Lat			R.Midfoot.Lat			R.Toe.Lat			R.Toe.Tip			R.Toe.Med			R.Ankle.Med			R.Midfoot.Sup			R.Heel			L.Thigh.Upper			L.Thigh.Front			L.Thigh.Rear			L.Knee.Lat			L.Knee.Med			L.Shank.Upper			L.Shank.Front			L.Shank.Rear			L.Ankle.Lat			L.Midfoot.Lat			L.Toe.Lat			L.Toe.Tip			L.Toe.Med			L.Ankle.Med			L.Midfoot.Sup			L.Heel			origin1 front left			origin2 front right			origin 3 back right			origin 4 back leftt			
		X1	Y1	Z1	X2	Y2	Z2	X3	Y3	Z3	X4	Y4	Z4	X5	Y5	Z5	X6	Y6	Z6	X7	Y7	Z7	X8	Y8	Z8	X9	Y9	Z9	X10	Y10	Z10	X11	Y11	Z11	X12	Y12	Z12	X13	Y13	Z13	X14	Y14	Z14	X15	Y15	Z15	X16	Y16	Z16	X17	Y17	Z17	X18	Y18	Z18	X19	Y19	Z19	X20	Y20	Z20	X21	Y21	Z21	X22	Y22	Z22	X23	Y23	Z23	X24	Y24	Z24	X25	Y25	Z25	X26	Y26	Z26	X27	Y27	Z27	X28	Y28	Z28	X29	Y29	Z29	X30	Y30	Z30	X31	Y31	Z31	X32	Y32	Z32	X33	Y33	Z33	X34	Y34	Z34	X35	Y35	Z35	X36	Y36	Z36	X37	Y37	Z37	X38	Y38	Z38	X39	Y39	Z39	X40	Y40	Z40	X41	Y41	Z41	X42	Y42	Z42	X43	Y43	Z43	

319	6.360	-434.67511	126.75294	1475.51074	-508.05380	-53.21805	1192.19324	-507.92407	297.16687	1185.82288	-573.91229	110.13470	986.47858	-802.33124	4.22174	863.98523	-795.51843	243.65887	840.02551	-992.44958	106.57599	880.03436	-801.86597	-70.20303	738.91742	-694.14246	-0.73787	761.10614	-715.08594	-60.25417	663.88318	-603.67938	-30.21080	572.27496	-569.65509	83.25334	552.97552	-590.07373	-29.27465	533.23785	-545.49402	20.06134	480.88284	-653.38782	-36.93694	468.78143	-747.23431	-9.07553	210.30582	-649.06067	-63.26956	167.83157	-608.84387	-69.36128	167.51715	-552.59650	-34.14528	168.74892	-596.98682	24.68328	165.74216	-670.15717	55.82470	152.02592	-704.42462	80.06516	206.96884	-788.28693	49.80354	177.69653	-813.82880	295.20251	715.71985	-676.79987	236.32715	749.99286	-695.78064	289.50211	644.58405	-616.59003	263.63556	573.34344	-543.69513	157.51799	550.69922	-582.89471	265.61542	534.46027	-531.57037	218.40683	491.31369	-636.08759	268.61288	473.20877	-753.39636	222.72942	207.03165	-654.46466	291.71060	156.98407	-619.42542	300.97098	158.02112	-551.94641	250.69188	166.08101	-586.98071	212.86856	174.03175	-671.55170	165.95024	153.80040	-697.24719	147.52005	207.50082	-787.61731	170.15706	189.70422	-528.15790	304.18173	146.55772	-517.88373	-72.84471	143.26863	-876.24603	-78.49664	141.25871	-882.71521	296.20850	144.91791	
320	6.380	-436.98224	126.31136	1484.27441	-508.71106	-53.64674	1200.28564	-508.67114	296.66571	1194.18115	-573.07330	109.60888	994.42590	-800.04895	3.80780	868.49457	-793.26172	242.91373	845.20880	-990.62842	105.84938	885.38989	-800.38275	-70.52779	742.74744	-692.18903	-1.38431	763.21252	-714.63275	-60.56940	666.16357	-604.44708	-30.45357	573.15112	-570.44867	82.90173	553.40265	-591.12433	-29.50135	533.84058	-546.42944	19.82854	481.42456	-654.32251	-37.08680	469.21112	-747.19684	-9.16629	210.23669	-649.09875	-63.51252	167.62187	-608.89313	-69.76038	167.02231	-552.60724	-34.28220	168.67218	-596.94012	24.61789	165.77200	-670.13190	55.76720	152.09464	-704.51031	79.96102	207.16211	-788.26215	49.59759	177.79274	-812.96454	294.73849	719.76184	-675.23651	236.64261	752.15930	-695.90942	289.34952	646.84686	-617.53156	263.76953	574.62726	-544.51123	157.99461	551.22607	-583.99640	265.86401	535.12378	-532.65833	218.79120	491.87225	-637.11517	268.69763	473.71188	-753.64856	222.82576	207.04280	-654.48175	291.78802	156.93628	-619.38190	301.03815	157.96410	-551.95081	250.73816	166.09906	-587.00018	212.93770	174.04100	-671.42426	165.78107	154.06468	-697.12738	147.63055	207.55890	-787.61377	170.18364	189.62160	-528.14691	304.17126	146.56548	-517.88251	-72.82804	143.27826	-876.21808	-78.59766	141.35231	-882.58301	296.22583	144.84596	
321	6.400	-439.39575	125.77086	1493.04980	-509.35849	-54.13523	1208.36987	-509.43640	296.10193	1202.59937	-572.23419	109.25356	1002.24103	-797.70654	3.39472	873.04810	-790.94116	242.14799	850.46924	-988.83618	105.11317	890.72998	-798.84314	-70.77655	746.62543	-690.35071	-2.00527	765.37463	-714.17578	-60.88150	668.47260	-605.25690	-30.72728	574.03632	-571.30554	82.48624	553.90533	-592.26648	-29.71690	534.50153	-547.60065	19.64410	481.94821	-655.37878	-37.32468	469.62088	-747.18018	-9.32062	210.18739	-649.11871	-63.78648	167.34999	-608.93292	-70.20763	166.43875	-552.60394	-34.41882	168.55750	-596.90381	24.56842	165.78481	-670.13525	55.76780	152.15692	-704.59735	79.82074	207.32504	-788.22144	49.39767	177.85760	-812.07251	294.25650	723.86694	-673.64038	236.99812	754.37598	-696.04614	289.30197	649.16119	-618.48132	264.02756	575.98834	-545.34894	158.57680	551.74847	-585.14246	266.16071	535.73651	-533.79016	219.31242	492.45242	-638.21222	268.86987	474.18225	-753.87561	222.90741	207.04553	-654.47406	291.87057	156.85345	-619.34210	301.11499	157.86104	-551.95697	250.78947	166.13908	-587.01752	213.02573	174.05620	-671.34088	165.67017	154.24886	-696.90607	147.75366	207.65790	-787.59869	170.22406	189.55348	-528.14941	304.16803	146.56111	-517.89117	-72.77630	143.26683	-876.13098	-78.69604	141.44193	-882.51099	296.22275	144.80229	
322	6.420	-441.91724	125.05758	1501.80762	-509.90149	-54.74673	1216.44519	-510.17383	295.51465	1211.04138	-571.42639	108.96342	1009.98364	-795.30371	2.98273	877.64478	-788.55652	241.36157	855.80627	-987.08167	104.38347	896.05017	-797.30579	-70.98465	750.46039	-688.59729	-2.66052	767.55518	-713.79034	-61.20089	670.79468	-606.15234	-31.02750	574.89520	-572.28375	82.00337	554.47131	-593.50507	-29.90857	535.20703	-548.96478	19.40083	482.48615	-656.57397	-37.59543	469.98322	-747.20416	-9.55483	210.18230	-649.13336	-64.11506	166.97209	-608.96771	-70.71136	165.77626	-552.59290	-34.51936	168.38890	-596.87274	24.52650	165.77156	-670.17938	55.79129	152.23239	-704.69739	79.66331	207.45857	-788.17340	49.21806	177.88252	-811.11267	293.77155	728.01727	-672.04132	237.43185	756.58289	-696.21075	289.32086	651.49677	-619.48688	264.42255	577.38367	-546.17950	159.34264	552.24463	-586.33765	266.58981	536.36176	-534.94116	219.96721	493.07306	-639.41486	269.14484	474.65280	-754.05774	222.99156	207.06747	-654.46924	291.96625	156.73923	-619.32574	301.21890	157.70883	-551.97351	250.83853	166.17584	-587.03973	213.15189	174.11006	-671.33826	165.69307	154.33455	-696.76776	147.88568	207.78613	-787.57477	170.30673	189.50156	-528.17645	304.14520	146.53050	-517.90100	-72.71158	143.24681	-876.05249	-78.74996	141.50784	-882.48547	296.19864	144.78442	
323	6.440	-444.50665	124.14645	1510.52258	-510.31097	-55.46544	1224.49585	-510.86688	294.92072	1219.45032	-570.66174	108.63586	1017.73401	-792.83997	2.57210	882.28369	-786.10645	240.55304	861.21857	-985.34680	103.69243	901.35425	-795.85864	-71.24522	754.20978	-686.91138	-3.40172	769.71875	-713.55713	-61.55748	673.14093	-607.18915	-31.40780	575.79492	-573.37994	81.48088	555.08337	-594.84503	-30.14833	535.92389	-550.42297	19.02304	483.07242	-657.89240	-37.90308	470.37628	-747.29291	-9.81540	210.21333	-649.14899	-64.46797	166.52837	-609.01062	-71.24436	165.05090	-552.58075	-34.56458	168.16525	-596.84668	24.47628	165.75468	-670.26697	55.80235	152.34738	-704.79669	79.47243	207.54939	-788.13214	49.07591	177.88010	-810.07715	293.30170	732.17102	-670.44806	237.94331	758.74603	-696.39929	289.34814	653.78925	-620.54956	264.88538	578.77545	-546.98657	160.29422	552.70789	-587.60223	267.14276	537.05139	-536.10907	220.69087	493.75510	-640.70917	269.49396	475.13516	-754.22681	223.09634	207.11229	-654.49884	292.08508	156.59248	-619.34833	301.36212	157.53065	-552.00781	250.89066	166.18777	-587.07996	213.31769	174.21944	-671.39038	165.86581	154.40739	-696.81085	148.04343	207.92659	-787.57257	170.43840	189.45093	-528.21753	304.10031	146.49335	-517.90283	-72.66248	143.22069	-876.01312	-78.75427	141.53740	-882.47034	296.15167	144.77254	
324	6.460	-447.09436	123.05272	1519.18701	-510.66376	-56.22015	1232.50183	-511.53821	294.32806	1227.78577	-569.92358	108.28824	1025.48193	-790.31500	2.16306	886.96381	-783.58722	239.71846	866.70349	-983.60181	103.07123	906.64465	-794.56909	-71.62089	757.91132	-685.30121	-4.24399	771.86639	-713.49768	-61.96651	675.54041	-608.39636	-31.89472	576.82037	-574.59381	80.92918	555.72046	-596.29095	-30.52666	536.64294	-551.92810	18.51498	483.70328	-659.29449	-38.27402	470.86108	-747.48956	-10.03630	210.23553	-649.14355	-64.78465	166.11821	-609.05432	-71.77014	164.32166	-552.56604	-34.56332	167.92950	-596.83038	24.41021	165.76848	-670.37665	55.78285	152.49876	-704.89069	79.21844	207.59370	-788.11072	48.97153	177.86873	-808.97748	292.86862	736.30078	-668.85022	238.47392	760.88513	-696.58948	289.34641	656.02386	-621.63361	265.31992	580.17242	-547.82275	161.30586	553.16595	-588.95776	267.66238	537.78101	-537.32281	221.38165	494.47183	-642.04303	269.84760	475.63345	-754.41974	223.20908	207.15517	-654.57703	292.23819	156.41132	-619.40680	301.52451	157.36617	-552.06238	250.95267	166.17700	-587.15155	213.49217	174.36494	-671.44427	166.13235	154.58177	-696.97900	148.22646	208.07918	-787.62006	170.59105	189.39053	-528.24512	304.06552	146.48607	-517.89661	-72.64445	143.18449	-875.99609	-78.73406	141.52769	-882.44647	296.09952	144.75833	
325	6.480	-449.61829	121.79820	1527.82129	-511.08936	-56.95881	1240.46802	-512.23071	293.75519	1236.06616	-569.16559	107.95438	1033.20654	-787.72852	1.75586	891.68414	-780.99310	238.85196	872.25751	-981.81982	102.52493	911.90131	-793.43396	-72.09305	761.63330	-683.77063	-5.16334	774.00812	-713.56348	-62.42282	677.99792	-609.75415	-32.43673	577.95544	-575.93207	80.32706	556.35712	-597.84894	-31.06967	537.38446	-553.48352	17.89059	484.34900	-660.75018	-38.68462	471.38144	-747.79211	-10.20800	210.23175	-649.11859	-65.04278	165.81114	-609.08862	-72.25085	163.66411	-552.54468	-34.54509	167.73047	-596.82391	24.33654	165.83316	-670.47040	55.74378	152.65413	-704.98767	78.89714	207.61707	-788.11273	48.89237	177.86246	-807.78766	292.46817	740.40771	-667.22925	238.90910	763.01575	-696.72235	289.31155	658.28070	-622.71301	265.58514	581.53937	-548.74292	162.15598	553.67798	-590.39917	267.91351	538.45282	-538.58813	221.92377	495.16028	-643.34406	270.09857	476.14484	-754.62891	223.28951	207.17230	-654.69476	292.41840	156.21297	-619.47827	301.66840	157.24413	-552.13019	251.02013	166.16100	-587.25415	213.62682	174.49693	-671.46924	166.38441	154.87578	-697.15802	148.38945	208.25072	-787.70020	170.72227	189.32312	-528.24335	304.07877	146.52786	-517.89343	-72.66115	143.14070	-875.98407	-78.71706	141.49284	-882.42316	296.07513	144.74403	
